<svg width="40" height="40" viewBox="0 0 40 40" fill="none" xmlns="http://www.w3.org/2000/svg">
<path d="M25 3.3335H16.6667M6.66667 22.5002C6.66694 19.6985 7.49794 16.9597 9.05461 14.6303C10.6113 12.3008 12.8237 10.4853 15.4122 9.41315C18.0006 8.34102 20.8489 8.06048 23.5967 8.60699C26.3446 9.1535 28.8688 10.5025 30.85 12.4835M30.85 12.4835C32.831 14.4647 34.18 16.9889 34.7265 19.7368C35.273 22.4846 34.9925 25.3329 33.9203 27.9213C32.8482 30.5098 31.0326 32.7222 28.7032 34.2789C26.3738 35.8356 23.635 36.6666 20.8333 36.6668H5M30.85 12.4835L33.3333 10.0002M13.3333 31.6668H5M10 26.6668H5M20.8333 22.5002L26.6667 16.6668" stroke="white" stroke-width="3" stroke-linecap="round" stroke-linejoin="round"/>
</svg>
