<svg width="167" height="40" viewBox="0 0 167 40" fill="none" xmlns="http://www.w3.org/2000/svg">
<path d="M52.125 21.9336H45.0352L43.8047 29H40.582L43.5352 11.9375H54.75L54.2695 14.6211H46.3008L45.4922 19.2617H52.5938L52.125 21.9336ZM58.3594 26.3398H66.1172L65.6484 29H54.6797L57.6328 11.9375H60.8672L58.3594 26.3398ZM81.3984 21.7109C81.2969 22.3438 81.1484 22.9727 80.9531 23.5977C80.7578 24.2227 80.5117 24.8164 80.2148 25.3789C79.9102 25.9414 79.5547 26.4648 79.1484 26.9492C78.75 27.4258 78.2969 27.8359 77.7891 28.1797C77.2812 28.5234 76.7227 28.7891 76.1133 28.9766C75.5039 29.1641 74.8398 29.25 74.1211 29.2344C73.4414 29.2188 72.8359 29.1055 72.3047 28.8945C71.7812 28.6758 71.3281 28.3828 70.9453 28.0156C70.5547 27.6562 70.2344 27.2383 69.9844 26.7617C69.7344 26.2773 69.543 25.7578 69.4102 25.2031C69.2773 24.6562 69.1992 24.0859 69.1758 23.4922C69.1523 22.8984 69.1797 22.3086 69.2578 21.7227L69.6445 19.2383C69.7383 18.6133 69.8789 17.9922 70.0664 17.375C70.2617 16.75 70.5039 16.1562 70.793 15.5938C71.0742 15.0312 71.4102 14.5078 71.8008 14.0234C72.1914 13.5391 72.6328 13.1211 73.125 12.7695C73.6172 12.4258 74.1641 12.1602 74.7656 11.9727C75.3672 11.7773 76.0234 11.6875 76.7344 11.7031C77.4219 11.7188 78.0312 11.832 78.5625 12.043C79.1016 12.2539 79.5742 12.5391 79.9805 12.8984C80.3789 13.2656 80.7109 13.6914 80.9766 14.1758C81.2422 14.6523 81.4492 15.1641 81.5977 15.7109C81.7383 16.2656 81.8242 16.8438 81.8555 17.4453C81.8867 18.0469 81.8633 18.6445 81.7852 19.2383L81.3984 21.7109ZM78.5273 19.2031C78.5664 18.9141 78.5977 18.5977 78.6211 18.2539C78.6445 17.9102 78.6484 17.5625 78.6328 17.2109C78.6094 16.8672 78.5586 16.5312 78.4805 16.2031C78.4023 15.875 78.2812 15.582 78.1172 15.3242C77.9531 15.0664 77.7383 14.8555 77.4727 14.6914C77.207 14.5273 76.875 14.4375 76.4766 14.4219C76.0469 14.4062 75.668 14.4688 75.3398 14.6094C75.0117 14.7422 74.7266 14.9297 74.4844 15.1719C74.2344 15.4219 74.0195 15.7109 73.8398 16.0391C73.6602 16.3594 73.5117 16.6992 73.3945 17.0586C73.2695 17.418 73.168 17.7852 73.0898 18.1602C73.0117 18.5273 72.9492 18.8789 72.9023 19.2148L72.5156 21.7344C72.4766 22.0078 72.4414 22.3125 72.4102 22.6484C72.3867 22.9844 72.3789 23.3281 72.3867 23.6797C72.3867 24.0312 72.418 24.375 72.4805 24.7109C72.543 25.0469 72.6484 25.3477 72.7969 25.6133C72.9453 25.8789 73.1445 26.0977 73.3945 26.2695C73.6523 26.4336 73.9805 26.5234 74.3789 26.5391C74.8008 26.5547 75.1797 26.4961 75.5156 26.3633C75.8516 26.2227 76.1523 26.0312 76.418 25.7891C76.6758 25.5469 76.9023 25.2617 77.0977 24.9336C77.293 24.6055 77.4609 24.2578 77.6016 23.8906C77.7344 23.5312 77.8438 23.1641 77.9297 22.7891C78.0156 22.4141 78.0859 22.0586 78.1406 21.7227L78.5273 19.2031ZM83.8594 29L84.2461 11.9375H87.1523L86.7773 20.8438L86.7305 22.0508L87.082 20.8789L89.7188 11.9375H92.0273L91.9102 20.9375L91.8984 22.1562L92.2148 20.9844L94.6992 11.9375H97.6875L92.7305 29H89.8242L89.8359 20.3047V18.9805L89.4609 20.1875L86.7656 29H83.8594ZM111.387 14.6211H106.289L103.793 29H100.57L103.066 14.6211H98.0273L98.4961 11.9375H111.867L111.387 14.6211ZM114.469 11.9375H124.066L123.598 14.5977H120.375L118.336 26.3516H121.57L121.102 29H111.504L111.973 26.3516H115.113L117.152 14.5977H114L114.469 11.9375ZM131.754 11.9375L132.199 18.3008L135.082 11.9375H139.113L136.148 29H133.195L134.098 23.8203L135.551 16.2266L132.211 23.375H130.605L129.891 16.168L128.648 24.0781L127.793 29H124.84L127.805 11.9375H131.754ZM150.48 21.5234H143.684L142.84 26.3398H150.797L150.328 29H139.16L142.125 11.9375H153.258L152.789 14.6211H144.879L144.129 18.9219H150.938L150.48 21.5234ZM159.867 22.625H157.383L156.281 29H153.059L156.023 11.9375L161.402 11.9492C162.184 11.9648 162.91 12.082 163.582 12.3008C164.262 12.5117 164.848 12.8242 165.34 13.2383C165.824 13.6523 166.191 14.1719 166.441 14.7969C166.699 15.4219 166.793 16.1562 166.723 17C166.676 17.6016 166.555 18.1523 166.359 18.6523C166.164 19.1523 165.906 19.6016 165.586 20C165.258 20.3984 164.871 20.75 164.426 21.0547C163.98 21.3516 163.484 21.6094 162.938 21.8281L165.293 28.8242V29H161.871L159.867 22.625ZM157.84 19.9531L160.078 19.9883C160.508 19.9883 160.914 19.9297 161.297 19.8125C161.688 19.6875 162.035 19.5078 162.34 19.2734C162.637 19.0391 162.883 18.75 163.078 18.4062C163.281 18.0625 163.41 17.668 163.465 17.2227C163.52 16.8164 163.508 16.4531 163.43 16.1328C163.352 15.8125 163.219 15.543 163.031 15.3242C162.844 15.1133 162.602 14.9492 162.305 14.832C162.008 14.707 161.664 14.6367 161.273 14.6211L158.777 14.6094L157.84 19.9531Z" fill="white"/>
<path d="M25 3.3335H16.6667M6.66667 22.5002C6.66694 19.6985 7.49794 16.9597 9.05461 14.6303C10.6113 12.3008 12.8237 10.4853 15.4122 9.41315C18.0006 8.34102 20.8489 8.06048 23.5967 8.60699C26.3446 9.1535 28.8688 10.5025 30.85 12.4835M30.85 12.4835C32.831 14.4647 34.18 16.9889 34.7265 19.7368C35.273 22.4846 34.9925 25.3329 33.9203 27.9213C32.8482 30.5098 31.0326 32.7222 28.7032 34.2789C26.3738 35.8356 23.635 36.6666 20.8333 36.6668H5M30.85 12.4835L33.3333 10.0002M13.3333 31.6668H5M10 26.6668H5M20.8333 22.5002L26.6667 16.6668" stroke="white" stroke-width="3" stroke-linecap="round" stroke-linejoin="round"/>
</svg>
