<svg width="40" height="40" viewBox="0 0 40 40" fill="none" xmlns="http://www.w3.org/2000/svg">
<g clip-path="url(#clip0_114_462)">
<path d="M30 0H10C4.47715 0 0 4.47715 0 10V30C0 35.5228 4.47715 40 10 40H30C35.5228 40 40 35.5228 40 30V10C40 4.47715 35.5228 0 30 0Z" fill="#149FE5"/>
<path d="M20.5624 9.26673C23.8582 9.26673 26.997 10.506 29.3511 12.8295C34.2163 17.6315 34.2163 25.5317 29.3511 30.3337C26.5262 33.2768 22.6027 34.3612 18.8361 33.8965L19.6208 30.7984C22.2888 31.1082 25.1137 30.1788 27.1539 28.165C30.7636 24.6022 30.7636 18.7159 27.1539 14.9982C25.4276 13.2942 22.9165 12.3648 20.5624 12.3648V19.4904L12.7154 11.7452L20.5624 4V9.26673ZM11.6168 30.3337C7.53631 26.3062 6.90855 20.11 9.73349 15.308L12.0876 17.6315C10.3612 21.0394 10.989 25.3767 13.9709 28.165C14.7556 28.9395 15.6972 29.5592 16.7958 30.0239L15.8542 33.1219C14.2848 32.5023 12.8723 31.5729 11.6168 30.3337Z" fill="white"/>
</g>
<defs>
<clipPath id="clip0_114_462">
<rect width="40" height="40" fill="white"/>
</clipPath>
</defs>
</svg>
