<svg width="40" height="40" viewBox="0 0 40 40" fill="none" xmlns="http://www.w3.org/2000/svg">
<path d="M15.4167 36.6668L14.75 31.3335C14.3889 31.1946 14.0489 31.0279 13.73 30.8335C13.4111 30.6391 13.0983 30.4307 12.7917 30.2085L7.83333 32.2918L3.25 24.3752L7.54167 21.1252C7.51389 20.9307 7.5 20.7435 7.5 20.5635V19.4385C7.5 19.2574 7.51389 19.0696 7.54167 18.8752L3.25 15.6252L7.83333 7.7085L12.7917 9.79183C13.0972 9.56961 13.4167 9.36127 13.75 9.16683C14.0833 8.97238 14.4167 8.80572 14.75 8.66683L15.4167 3.3335H24.5833L25.25 8.66683C25.6111 8.80572 25.9517 8.97238 26.2717 9.16683C26.5917 9.36127 26.9039 9.56961 27.2083 9.79183L32.1667 7.7085L36.75 15.6252L32.4583 18.8752C32.4861 19.0696 32.5 19.2574 32.5 19.4385V20.5618C32.5 20.7429 32.4722 20.9307 32.4167 21.1252L36.7083 24.3752L32.125 32.2918L27.2083 30.2085C26.9028 30.4307 26.5833 30.6391 26.25 30.8335C25.9167 31.0279 25.5833 31.1946 25.25 31.3335L24.5833 36.6668H15.4167ZM18.3333 33.3335H21.625L22.2083 28.9168C23.0694 28.6946 23.8683 28.3685 24.605 27.9385C25.3417 27.5085 26.015 26.9874 26.625 26.3752L30.75 28.0835L32.375 25.2502L28.7917 22.5418C28.9306 22.1529 29.0278 21.7435 29.0833 21.3135C29.1389 20.8835 29.1667 20.4457 29.1667 20.0002C29.1667 19.5546 29.1389 19.1174 29.0833 18.6885C29.0278 18.2596 28.9306 17.8496 28.7917 17.4585L32.375 14.7502L30.75 11.9168L26.625 13.6668C26.0139 13.0279 25.3406 12.4935 24.605 12.0635C23.8694 11.6335 23.0706 11.3068 22.2083 11.0835L21.6667 6.66683H18.375L17.7917 11.0835C16.9306 11.3057 16.1322 11.6324 15.3967 12.0635C14.6611 12.4946 13.9872 13.0152 13.375 13.6252L9.25 11.9168L7.625 14.7502L11.2083 17.4168C11.0694 17.8335 10.9722 18.2502 10.9167 18.6668C10.8611 19.0835 10.8333 19.5279 10.8333 20.0002C10.8333 20.4446 10.8611 20.8752 10.9167 21.2918C10.9722 21.7085 11.0694 22.1252 11.2083 22.5418L7.625 25.2502L9.25 28.0835L13.375 26.3335C13.9861 26.9724 14.66 27.5074 15.3967 27.9385C16.1333 28.3696 16.9317 28.6957 17.7917 28.9168L18.3333 33.3335ZM20.0833 25.8335C21.6944 25.8335 23.0694 25.2641 24.2083 24.1252C25.3472 22.9863 25.9167 21.6113 25.9167 20.0002C25.9167 18.3891 25.3472 17.0141 24.2083 15.8752C23.0694 14.7363 21.6944 14.1668 20.0833 14.1668C18.4444 14.1668 17.0622 14.7363 15.9367 15.8752C14.8111 17.0141 14.2489 18.3891 14.25 20.0002C14.2511 21.6113 14.8139 22.9863 15.9383 24.1252C17.0628 25.2641 18.4444 25.8335 20.0833 25.8335Z" fill="white"/>
</svg>
